HIERARCHY
ROOT RootJoint
{
    OFFSET   0.000000   0.000000   0.000000
    CHANNELS 6 Xposition Yposition Zposition Xrotation Yrotation Zrotation
    JOINT pelvis_lowerback
    {
        OFFSET   0.000000   0.093605   0.000000
        CHANNELS 3 Xrotation Yrotation Zrotation
        JOINT lowerback_torso
        {
            OFFSET   0.000000   0.100000   0.000000
            CHANNELS 3 Xrotation Yrotation Zrotation
            JOINT torso_head
            {
                OFFSET   0.000000   0.282350   0.000000
                CHANNELS 3 Xrotation Yrotation Zrotation
                End Site
                {
                    OFFSET   0.000000   0.192650   0.000000
                }
            }
            JOINT rTorso_Clavicle
            {
                OFFSET  -0.001000   0.157500   0.000000
                CHANNELS 3 Xrotation Yrotation Zrotation
                JOINT rShoulder
                {
                    OFFSET  -0.117647   0.000000   0.000000
                    CHANNELS 3 Xrotation Yrotation Zrotation
                    JOINT rElbow
                    {
                        OFFSET  -0.245000   0.000000   0.000000
                        CHANNELS 3 Xrotation Yrotation Zrotation
                        JOINT rWrist
                        {
                            OFFSET  -0.240000   0.000000   0.000000
                            CHANNELS 3 Xrotation Yrotation Zrotation
                            End Site
                            {
                                OFFSET  -0.116353  -0.002500   0.000000
                            }
                        }
                    }
                }
            }
            JOINT lTorso_Clavicle
            {
                OFFSET   0.001000   0.157500   0.000000
                CHANNELS 3 Xrotation Yrotation Zrotation
                JOINT lShoulder
                {
                    OFFSET   0.117647   0.000000   0.000000
                    CHANNELS 3 Xrotation Yrotation Zrotation
                    JOINT lElbow
                    {
                        OFFSET   0.245000   0.000000   0.000000
                        CHANNELS 3 Xrotation Yrotation Zrotation
                        JOINT lWrist
                        {
                            OFFSET   0.240000   0.000000   0.000000
                            CHANNELS 3 Xrotation Yrotation Zrotation
                            End Site
                            {
                                OFFSET   0.116353  -0.002500   0.000000
                            }
                        }
                    }
                }
            }
        }
    }
    JOINT rHip
    {
        OFFSET  -0.100000  -0.051395   0.000000
        CHANNELS 3 Xrotation Yrotation Zrotation
        JOINT rKnee
        {
            OFFSET   0.000000  -0.410000   0.000000
            CHANNELS 3 Xrotation Yrotation Zrotation
            JOINT rAnkle
            {
                OFFSET   0.000000  -0.390000   0.000000
                CHANNELS 3 Xrotation Yrotation Zrotation
                JOINT rToeJoint
                {
                    OFFSET   0.000000  -0.050000   0.130000
                    CHANNELS 3 Xrotation Yrotation Zrotation
                    End Site
                    {
                        OFFSET  -0.010000   0.002000   0.060000
                    }
                }
            }
        }
    }
    JOINT lHip
    {
        OFFSET   0.100000  -0.051395   0.000000
        CHANNELS 3 Xrotation Yrotation Zrotation
        JOINT lKnee
        {
            OFFSET   0.000000  -0.410000   0.000000
            CHANNELS 3 Xrotation Yrotation Zrotation
            JOINT lAnkle
            {
                OFFSET   0.000000  -0.390000   0.000000
                CHANNELS 3 Xrotation Yrotation Zrotation
                JOINT lToeJoint
                {
                    OFFSET   0.000000  -0.050000   0.130000
                    CHANNELS 3 Xrotation Yrotation Zrotation
                    End Site
                    {
                        OFFSET   0.010000   0.002000   0.060000
                    }
                }
            }
        }
    }
}
MOTION
Frames: 11
Frame Time:   0.008333
 -2.376719   0.925631   3.975860   0.000000   0.000000   0.000000   0.000000   0.000000   0.000000   0.000000   0.000000   0.000000   0.000000   0.000000   0.000000   0.000000   0.000000   0.000000   0.000000   0.000000   0.000000   0.000000   0.000000   0.000000   0.000000   0.000000   0.000000   0.000000   0.000000   0.000000   0.000000   0.000000   0.000000   0.000000   0.000000   0.000000   0.000000   0.000000   0.000000   0.000000   0.000000   0.000000   0.000000   0.000000   0.000000   0.000000   0.000000   0.000000   0.000000   0.000000   0.000000   0.000000   0.000000   0.000000   0.000000   0.000000   0.000000   0.000000   0.000000   0.000000   0.000000   0.000000   0.000000
 -2.376333   0.926311   3.975166  -0.423567  -0.118141   0.295693   0.404853   0.201274  -0.353315   0.365561  -0.028225   0.054195  -0.019936   0.305950   0.065551   0.252263  -0.523989   0.528330   1.108709   0.323968   1.932855   0.024879   1.148396  -0.017296   0.558161  -0.521529  -2.883631   0.003525  -0.112019  -0.673112   0.602212  -0.230878  -1.816068   0.018441  -0.844698   0.007177   0.476144   0.712764   2.868795  -0.746393  -0.044145  -0.407373   2.794402   0.002620  -0.004144  -1.346782  -0.557857   0.102385  -0.343214  -0.000044   0.002169   0.222962   0.107819  -0.346116   1.406973   0.000612  -0.000121  -2.252744  -0.028060   0.025916   0.574114   0.000119  -0.000181
 -2.375851   0.927387   3.974485  -0.969759  -0.105382   0.630884   0.843690   0.300896  -0.709644   0.850021  -0.144420   0.071855   0.009020   0.607856   0.135768   0.507289  -0.971811   1.792443   2.180639   0.737865   4.458711   0.057965   2.269850  -0.030598   1.165136  -0.698653  -5.055642   0.008221  -0.377250  -2.140934   1.153135  -0.602492  -4.152677   0.043511  -1.700894   0.013115   0.967411   1.088510   4.920618  -1.560953  -0.104985  -0.904070   5.704744   0.005781  -0.005408  -2.584072  -1.091980   0.180524  -0.636883  -0.000272   0.003280   0.707620   0.199563  -0.718577   2.956245   0.001037   0.001370  -4.365168  -0.057762   0.045361   0.978499   0.000143   0.000145
 -2.375385   0.928408   3.973862  -1.508298   0.006284   0.958853   1.256601   0.314993  -1.046777   1.324636  -0.331724   0.070280   0.042882   0.890251   0.205841   0.752986  -1.342252   3.500715   3.208058   1.228490   7.372969   0.090577   3.330228  -0.039395   1.760229  -0.733734  -6.372782  -0.001155  -0.744090  -4.086304   1.643000  -1.064427  -6.758262   0.068562  -2.536076   0.017335   1.449333   1.219050   6.038603  -2.459769  -0.156240  -1.416774   8.424537   0.008626  -0.004461  -3.735994  -1.593023   0.239970  -0.899697  -0.000524   0.003728   1.339160   0.284897  -1.052184   4.484421   0.001138   0.003882  -6.334068  -0.085448   0.060966   1.346241   0.000071   0.000708
 -2.374971   0.929051   3.973320  -2.011995   0.185139   1.271014   1.638400   0.263381  -1.367153   1.763888  -0.571346   0.057980   0.071189   1.153574   0.272698   0.989410  -1.655908   5.464912   4.183970   1.784442  10.523329   0.118640   4.327403  -0.044545   2.337671  -0.692252  -7.034342  -0.030075  -1.170735  -6.295968   2.071570  -1.583937  -9.476835   0.090233  -3.340361   0.020170   1.923356   1.179503   6.467819  -3.439154  -0.194272  -1.926323  10.924227   0.011009  -0.002644  -4.813071  -2.061895   0.284174  -1.150617  -0.000763   0.003835   2.076602   0.363221  -1.335128   5.961310   0.001020   0.006713  -8.170688  -0.110690   0.074143   1.679942  -0.000066   0.001310
 -2.374579   0.929064   3.972874  -2.477421   0.408006   1.564277   1.990646   0.160348  -1.666176   2.167179  -0.849494   0.051785   0.094022   1.399104   0.330736   1.218959  -1.930296   7.598788   5.062525   2.370590  13.676598   0.139958   5.263034  -0.046536   2.896200  -0.597545  -7.173965  -0.080511  -1.626340  -8.634316   2.441133  -2.135941 -12.211777   0.107006  -4.108207   0.021969   2.386929   1.024783   6.429107  -4.484658  -0.217994  -2.428156  13.216141   0.012974  -0.000740  -5.820843  -2.500258   0.315905  -1.391206  -0.000977   0.003742   2.897791   0.433149  -1.569955   7.382249   0.000839   0.009426  -9.884208  -0.133701   0.085736   1.982570  -0.000221   0.001845
 -2.374195   0.928265   3.972533  -2.906499   0.655909   1.840018   2.315355   0.016116  -1.941643   2.538289  -1.156876   0.053675   0.113078   1.628191   0.382601   1.443039  -2.181644   9.794020   5.850552   2.968801  16.759123   0.154239   6.137590  -0.046199   3.431510  -0.476912  -6.978084  -0.151720  -2.088315 -11.005360   2.755744  -2.700788 -14.897832   0.118536  -4.836560   0.023004   2.836183   0.795286   6.091828  -5.580538  -0.226480  -2.921546  15.317935   0.014504   0.000845  -6.763728  -2.909902   0.337374  -1.620170  -0.001153   0.003538   3.785717   0.494070  -1.763426   8.747210   0.000667   0.011761 -11.482786  -0.154823   0.096218   2.258137  -0.000367   0.002265
 -2.373985   0.926007   3.971336  -3.104616   0.455409   1.965713   2.686989   0.067081  -2.060312   2.748648  -1.418404   0.011822  -0.045845   1.603258   0.505533   1.665777  -2.018800  11.616499   6.640796   3.532324  19.470999   0.165391   7.133851  -0.048579   3.844173  -0.508182  -5.864785  -0.118747  -2.473425 -12.625472   3.001364  -3.307290 -17.643433   0.125086  -5.597629   0.025879   3.184136   0.527531   5.011008  -7.451737  -0.458450  -3.305911  18.249835   0.014208  -0.015534  -7.719528  -3.480446   0.506340  -1.623012  -0.000923   0.002859   4.781638   0.737996  -1.723610   8.960727   0.000238   0.009616 -12.552931  -0.417708  -0.005377   2.533326  -0.000512   0.001367
 -2.373833   0.922501   3.969815  -3.267558   0.236314   2.050417   3.113225   0.081232  -2.155149   2.958654  -1.665634  -0.007359  -0.203574   1.563755   0.623341   1.827342  -1.762246  13.165860   7.332330   4.155656  21.885956   0.168229   8.090712  -0.049690   4.257561  -0.430203  -4.860004  -0.122610  -2.898245 -13.961520   3.193055  -3.929201 -20.090115   0.125551  -6.327038   0.028501   3.527229   0.174399   4.023233  -9.384099  -0.693797  -3.695389  21.027534   0.013084  -0.029054  -8.603986  -4.023664   0.653614  -1.606420  -0.000725   0.002117   5.742309   0.950877  -1.578792   9.020905   0.000055   0.007730 -13.557992  -0.664466  -0.104816   2.791658  -0.000791   0.000585
 -2.373691   0.917869   3.968190  -3.414179   0.036757   2.120952   3.560460   0.071817  -2.239832   3.176319  -1.909525  -0.014171  -0.342022   1.524523   0.732906   1.945994  -1.476893  14.506928   7.940591   4.791639  24.057798   0.165306   8.997900  -0.049456   4.663548  -0.280460  -4.058965  -0.163559  -3.344793 -15.089914   3.335252  -4.553147 -22.284844   0.122119  -7.023378   0.030388   3.863569  -0.240159   3.251718 -11.285655  -0.895185  -4.111256  23.588069   0.011880  -0.038047  -9.429796  -4.533868   0.781771  -1.591805  -0.000564   0.001552   6.658938   1.148516  -1.371835   9.055605  -0.000054   0.006208 -14.497811  -0.892493  -0.201067   3.027161  -0.001100   0.000035
 -2.373542   0.912195   3.966589  -3.548404  -0.138850   2.184095   4.007703   0.046874  -2.315297   3.393914  -2.149783  -0.013166  -0.463154   1.487191   0.834519   2.036836  -1.192504  15.682831   8.480120   5.414360  26.025776   0.158534   9.850483  -0.048028   5.055555  -0.103567  -3.423907  -0.231334  -3.789298 -16.059341   3.437186  -5.161276 -24.270165   0.116205  -7.683333   0.031376   4.188952  -0.687420   2.661973 -13.129427  -1.059878  -4.551931  25.948186   0.010829  -0.043430 -10.201532  -5.012154   0.893275  -1.580863  -0.000438   0.001143   7.536517   1.335279  -1.121323   9.086188  -0.000139   0.004992 -15.375356  -1.103123  -0.293919   3.244499  -0.001394  -0.000330
